<mxfile host="65bd71144e">
    <diagram id="7cVWoikjw2al0mrFs_u3" name="Page-1">
        <mxGraphModel dx="1690" dy="1820" grid="1" gridSize="10" guides="1" tooltips="1" connect="1" arrows="1" fold="1" page="1" pageScale="1" pageWidth="850" pageHeight="1100" math="0" shadow="0">
            <root>
                <mxCell id="0"/>
                <mxCell id="1" parent="0"/>
                <mxCell id="252" value="" style="ellipse;whiteSpace=wrap;html=1;" vertex="1" parent="1">
                    <mxGeometry x="-265" y="355" width="70" height="40" as="geometry"/>
                </mxCell>
                <mxCell id="243" value="" style="rhombus;whiteSpace=wrap;html=1;" parent="1" vertex="1">
                    <mxGeometry x="90" y="-95" width="80" height="80" as="geometry"/>
                </mxCell>
                <mxCell id="116" value="(0,N)" style="text;html=1;strokeColor=none;fillColor=none;align=center;verticalAlign=middle;whiteSpace=wrap;rounded=0;" parent="1" vertex="1">
                    <mxGeometry x="160" y="-84" width="60" height="30" as="geometry"/>
                </mxCell>
                <mxCell id="115" value="(1,N)" style="text;html=1;strokeColor=none;fillColor=none;align=center;verticalAlign=middle;whiteSpace=wrap;rounded=0;" parent="1" vertex="1">
                    <mxGeometry x="40" y="-84" width="60" height="30" as="geometry"/>
                </mxCell>
                <mxCell id="231" value="Has" style="rhombus;whiteSpace=wrap;html=1;" parent="1" vertex="1">
                    <mxGeometry x="722.5" y="690" width="100" height="100" as="geometry"/>
                </mxCell>
                <mxCell id="248" style="edgeStyle=none;html=1;entryX=0;entryY=0;entryDx=0;entryDy=0;endArrow=none;endFill=0;exitX=0.75;exitY=1;exitDx=0;exitDy=0;" parent="1" source="230" target="247" edge="1">
                    <mxGeometry relative="1" as="geometry">
                        <mxPoint x="600" y="950" as="sourcePoint"/>
                        <Array as="points"/>
                    </mxGeometry>
                </mxCell>
                <mxCell id="251" style="edgeStyle=none;html=1;entryX=0;entryY=0.5;entryDx=0;entryDy=0;endArrow=none;endFill=0;exitX=1;exitY=1;exitDx=0;exitDy=0;" parent="1" source="230" target="250" edge="1">
                    <mxGeometry relative="1" as="geometry">
                        <mxPoint x="700" y="850" as="sourcePoint"/>
                    </mxGeometry>
                </mxCell>
                <mxCell id="257" style="edgeStyle=none;html=1;exitX=0;exitY=0.75;exitDx=0;exitDy=0;entryX=1;entryY=0.5;entryDx=0;entryDy=0;endArrow=none;endFill=0;" edge="1" parent="1" source="230" target="254">
                    <mxGeometry relative="1" as="geometry">
                        <mxPoint x="40" y="850" as="targetPoint"/>
                        <Array as="points"/>
                    </mxGeometry>
                </mxCell>
                <mxCell id="230" value="Author" style="rounded=0;whiteSpace=wrap;html=1;" parent="1" vertex="1">
                    <mxGeometry x="585" y="825" width="83.75" height="30" as="geometry"/>
                </mxCell>
                <mxCell id="229" value="Has" style="rhombus;whiteSpace=wrap;html=1;" parent="1" vertex="1">
                    <mxGeometry x="425" y="740" width="100" height="100" as="geometry"/>
                </mxCell>
                <mxCell id="59" style="edgeStyle=none;html=1;exitX=1;exitY=0.5;exitDx=0;exitDy=0;entryX=0;entryY=0.5;entryDx=0;entryDy=0;endArrow=none;endFill=0;" parent="1" source="2" target="58" edge="1">
                    <mxGeometry relative="1" as="geometry"/>
                </mxCell>
                <mxCell id="2" value="Library" style="rounded=0;whiteSpace=wrap;html=1;" parent="1" vertex="1">
                    <mxGeometry x="480" y="290" width="120" height="60" as="geometry"/>
                </mxCell>
                <mxCell id="49" style="edgeStyle=none;html=1;exitX=1;exitY=0.5;exitDx=0;exitDy=0;entryX=0;entryY=0.5;entryDx=0;entryDy=0;endArrow=none;endFill=0;" parent="1" source="3" target="2" edge="1">
                    <mxGeometry relative="1" as="geometry"/>
                </mxCell>
                <mxCell id="3" value="has" style="rhombus;whiteSpace=wrap;html=1;" parent="1" vertex="1">
                    <mxGeometry x="360" y="280" width="80" height="80" as="geometry"/>
                </mxCell>
                <mxCell id="8" value="Time / Hours" style="ellipse;whiteSpace=wrap;html=1;" parent="1" vertex="1">
                    <mxGeometry x="540" y="372.5" width="60" height="45" as="geometry"/>
                </mxCell>
                <mxCell id="10" value="" style="endArrow=none;html=1;entryX=0.5;entryY=0;entryDx=0;entryDy=0;exitX=0.5;exitY=1;exitDx=0;exitDy=0;" parent="1" source="2" target="8" edge="1">
                    <mxGeometry width="50" height="50" relative="1" as="geometry">
                        <mxPoint x="520" y="360" as="sourcePoint"/>
                        <mxPoint x="480" y="380" as="targetPoint"/>
                    </mxGeometry>
                </mxCell>
                <mxCell id="12" value="" style="rounded=0;whiteSpace=wrap;html=1;" parent="1" vertex="1">
                    <mxGeometry x="-70" y="-85" width="120" height="60" as="geometry"/>
                </mxCell>
                <mxCell id="14" value="Wage" style="ellipse;whiteSpace=wrap;html=1;" parent="1" vertex="1">
                    <mxGeometry x="-170" y="-85" width="60" height="30" as="geometry"/>
                </mxCell>
                <mxCell id="16" value="Address" style="ellipse;whiteSpace=wrap;html=1;" parent="1" vertex="1">
                    <mxGeometry x="-170" y="-45" width="60" height="30" as="geometry"/>
                </mxCell>
                <mxCell id="23" value="" style="endArrow=none;html=1;exitX=1;exitY=0.5;exitDx=0;exitDy=0;entryX=0;entryY=0.75;entryDx=0;entryDy=0;" parent="1" source="16" target="12" edge="1">
                    <mxGeometry width="50" height="50" relative="1" as="geometry">
                        <mxPoint x="-220" y="135" as="sourcePoint"/>
                        <mxPoint x="-70" y="-35" as="targetPoint"/>
                    </mxGeometry>
                </mxCell>
                <mxCell id="24" value="" style="endArrow=none;html=1;exitX=1;exitY=0.5;exitDx=0;exitDy=0;entryX=0;entryY=0.25;entryDx=0;entryDy=0;" parent="1" source="14" target="12" edge="1">
                    <mxGeometry width="50" height="50" relative="1" as="geometry">
                        <mxPoint x="-220" y="165" as="sourcePoint"/>
                        <mxPoint x="-70" y="-70" as="targetPoint"/>
                    </mxGeometry>
                </mxCell>
                <mxCell id="44" style="edgeStyle=none;html=1;exitX=1;exitY=0.5;exitDx=0;exitDy=0;entryX=0;entryY=0.5;entryDx=0;entryDy=0;endArrow=none;endFill=0;" parent="1" source="243" target="29" edge="1">
                    <mxGeometry relative="1" as="geometry"/>
                </mxCell>
                <mxCell id="28" value="is" style="rhombus;whiteSpace=wrap;html=1;" parent="1" vertex="1">
                    <mxGeometry x="100" y="-85" width="60" height="60" as="geometry"/>
                </mxCell>
                <mxCell id="141" style="edgeStyle=none;html=1;entryX=0.5;entryY=0;entryDx=0;entryDy=0;endArrow=none;endFill=0;exitX=0;exitY=1;exitDx=0;exitDy=0;" parent="1" source="29" target="140" edge="1">
                    <mxGeometry relative="1" as="geometry"/>
                </mxCell>
                <mxCell id="266" style="edgeStyle=none;html=1;exitX=0.5;exitY=1;exitDx=0;exitDy=0;entryX=0.5;entryY=0;entryDx=0;entryDy=0;endArrow=none;endFill=0;" edge="1" parent="1" source="29" target="265">
                    <mxGeometry relative="1" as="geometry"/>
                </mxCell>
                <mxCell id="29" value="User" style="rounded=0;whiteSpace=wrap;html=1;" parent="1" vertex="1">
                    <mxGeometry x="210" y="-85" width="120" height="60" as="geometry"/>
                </mxCell>
                <mxCell id="42" style="edgeStyle=none;html=1;exitX=0;exitY=0.5;exitDx=0;exitDy=0;entryX=1;entryY=0.5;entryDx=0;entryDy=0;endArrow=none;endFill=0;" parent="1" source="31" target="33" edge="1">
                    <mxGeometry relative="1" as="geometry"/>
                </mxCell>
                <mxCell id="31" value="Username" style="ellipse;whiteSpace=wrap;html=1;fontStyle=4" parent="1" vertex="1">
                    <mxGeometry x="440" y="-75" width="70" height="30" as="geometry"/>
                </mxCell>
                <mxCell id="33" value="Login" style="ellipse;whiteSpace=wrap;html=1;fontStyle=4" parent="1" vertex="1">
                    <mxGeometry x="360" y="-55" width="60" height="30" as="geometry"/>
                </mxCell>
                <mxCell id="41" style="edgeStyle=none;html=1;exitX=0;exitY=0.5;exitDx=0;exitDy=0;entryX=1;entryY=0.5;entryDx=0;entryDy=0;endArrow=none;endFill=0;" parent="1" source="34" target="33" edge="1">
                    <mxGeometry relative="1" as="geometry"/>
                </mxCell>
                <mxCell id="34" value="Password" style="ellipse;whiteSpace=wrap;html=1;fontStyle=0" parent="1" vertex="1">
                    <mxGeometry x="440" y="-35" width="60" height="30" as="geometry"/>
                </mxCell>
                <mxCell id="40" style="edgeStyle=none;html=1;exitX=0;exitY=0.5;exitDx=0;exitDy=0;entryX=1;entryY=0.25;entryDx=0;entryDy=0;endArrow=none;endFill=0;" parent="1" source="35" target="29" edge="1">
                    <mxGeometry relative="1" as="geometry"/>
                </mxCell>
                <mxCell id="35" value="D.O.B" style="ellipse;whiteSpace=wrap;html=1;" parent="1" vertex="1">
                    <mxGeometry x="360" y="-95" width="60" height="30" as="geometry"/>
                </mxCell>
                <mxCell id="36" value="Authoirty Level" style="ellipse;whiteSpace=wrap;html=1;" parent="1" vertex="1">
                    <mxGeometry x="280" y="-190" width="70" height="40" as="geometry"/>
                </mxCell>
                <mxCell id="38" value="" style="endArrow=none;html=1;entryX=0.5;entryY=1;entryDx=0;entryDy=0;exitX=0.75;exitY=0;exitDx=0;exitDy=0;" parent="1" source="29" target="36" edge="1">
                    <mxGeometry width="50" height="50" relative="1" as="geometry">
                        <mxPoint x="300" y="-85" as="sourcePoint"/>
                        <mxPoint x="300" y="35" as="targetPoint"/>
                    </mxGeometry>
                </mxCell>
                <mxCell id="39" value="" style="endArrow=none;html=1;entryX=1;entryY=0.75;entryDx=0;entryDy=0;exitX=0;exitY=0.5;exitDx=0;exitDy=0;" parent="1" source="33" target="29" edge="1">
                    <mxGeometry width="50" height="50" relative="1" as="geometry">
                        <mxPoint x="250" y="-75" as="sourcePoint"/>
                        <mxPoint x="240" y="-105" as="targetPoint"/>
                    </mxGeometry>
                </mxCell>
                <mxCell id="48" style="edgeStyle=none;html=1;exitX=1;exitY=0.5;exitDx=0;exitDy=0;entryX=0;entryY=0.5;entryDx=0;entryDy=0;endArrow=none;endFill=0;" parent="1" source="45" target="3" edge="1">
                    <mxGeometry relative="1" as="geometry">
                        <Array as="points"/>
                    </mxGeometry>
                </mxCell>
                <mxCell id="123" style="edgeStyle=none;html=1;entryX=0.5;entryY=0;entryDx=0;entryDy=0;endArrow=none;endFill=0;exitX=1;exitY=1;exitDx=0;exitDy=0;" parent="1" source="45" target="121" edge="1">
                    <mxGeometry relative="1" as="geometry">
                        <mxPoint x="300" y="360" as="sourcePoint"/>
                    </mxGeometry>
                </mxCell>
                <mxCell id="45" value="Item" style="rounded=0;whiteSpace=wrap;html=1;" parent="1" vertex="1">
                    <mxGeometry x="200" y="290" width="120" height="60" as="geometry"/>
                </mxCell>
                <mxCell id="46" value="" style="html=1;endArrow=none;endFill=0;entryX=0;entryY=0.5;entryDx=0;entryDy=0;exitX=1;exitY=0.5;exitDx=0;exitDy=0;" parent="1" source="12" target="243" edge="1">
                    <mxGeometry width="100" relative="1" as="geometry">
                        <mxPoint x="-20" y="65" as="sourcePoint"/>
                        <mxPoint x="80" y="65" as="targetPoint"/>
                    </mxGeometry>
                </mxCell>
                <mxCell id="205" style="edgeStyle=none;html=1;exitX=0.5;exitY=1;exitDx=0;exitDy=0;entryX=0.5;entryY=0;entryDx=0;entryDy=0;endArrow=none;endFill=0;" parent="1" source="50" target="204" edge="1">
                    <mxGeometry relative="1" as="geometry"/>
                </mxCell>
                <mxCell id="50" value="Event" style="rounded=0;whiteSpace=wrap;html=1;" parent="1" vertex="1">
                    <mxGeometry x="770" y="290" width="120" height="60" as="geometry"/>
                </mxCell>
                <mxCell id="51" value="Time" style="ellipse;whiteSpace=wrap;html=1;" parent="1" vertex="1">
                    <mxGeometry x="770" y="425" width="60" height="30" as="geometry"/>
                </mxCell>
                <mxCell id="53" value="Room" style="ellipse;whiteSpace=wrap;html=1;fontStyle=4" parent="1" vertex="1">
                    <mxGeometry x="860" y="425" width="60" height="30" as="geometry"/>
                </mxCell>
                <mxCell id="60" style="edgeStyle=none;html=1;exitX=1;exitY=0.5;exitDx=0;exitDy=0;entryX=0;entryY=0.5;entryDx=0;entryDy=0;endArrow=none;endFill=0;" parent="1" source="58" target="50" edge="1">
                    <mxGeometry relative="1" as="geometry"/>
                </mxCell>
                <mxCell id="58" value="Hosts" style="rhombus;whiteSpace=wrap;html=1;" parent="1" vertex="1">
                    <mxGeometry x="650" y="280" width="80" height="80" as="geometry"/>
                </mxCell>
                <mxCell id="62" style="edgeStyle=none;html=1;exitX=0.5;exitY=0;exitDx=0;exitDy=0;entryX=0;entryY=1;entryDx=0;entryDy=0;endArrow=none;endFill=0;" parent="1" source="61" target="45" edge="1">
                    <mxGeometry relative="1" as="geometry"/>
                </mxCell>
                <mxCell id="145" style="edgeStyle=none;html=1;entryX=1;entryY=0.5;entryDx=0;entryDy=0;endArrow=none;endFill=0;exitX=0;exitY=0.5;exitDx=0;exitDy=0;" parent="1" source="61" target="66" edge="1">
                    <mxGeometry relative="1" as="geometry">
                        <mxPoint x="130" y="380" as="sourcePoint"/>
                    </mxGeometry>
                </mxCell>
                <mxCell id="61" value="is" style="rhombus;whiteSpace=wrap;html=1;" parent="1" vertex="1">
                    <mxGeometry x="160" y="370" width="80" height="80" as="geometry"/>
                </mxCell>
                <mxCell id="88" style="edgeStyle=none;html=1;exitX=0.75;exitY=0;exitDx=0;exitDy=0;endArrow=none;endFill=0;entryX=0.5;entryY=1;entryDx=0;entryDy=0;" parent="1" source="63" target="87" edge="1">
                    <mxGeometry relative="1" as="geometry">
                        <mxPoint x="509.99999999999955" y="570" as="targetPoint"/>
                    </mxGeometry>
                </mxCell>
                <mxCell id="164" style="edgeStyle=none;html=1;exitX=0;exitY=0.5;exitDx=0;exitDy=0;entryX=1;entryY=0.5;entryDx=0;entryDy=0;endArrow=none;endFill=0;" parent="1" source="63" target="155" edge="1">
                    <mxGeometry relative="1" as="geometry"/>
                </mxCell>
                <mxCell id="168" style="edgeStyle=none;html=1;exitX=0.25;exitY=1;exitDx=0;exitDy=0;entryX=0.5;entryY=0;entryDx=0;entryDy=0;endArrow=none;endFill=0;" parent="1" source="63" target="167" edge="1">
                    <mxGeometry relative="1" as="geometry"/>
                </mxCell>
                <mxCell id="213" style="edgeStyle=none;html=1;endArrow=none;endFill=0;exitX=0.5;exitY=1;exitDx=0;exitDy=0;" parent="1" source="63" edge="1">
                    <mxGeometry relative="1" as="geometry">
                        <mxPoint x="475" y="670" as="sourcePoint"/>
                        <mxPoint x="475" y="740" as="targetPoint"/>
                    </mxGeometry>
                </mxCell>
                <mxCell id="63" value="Book" style="rounded=0;whiteSpace=wrap;html=1;" parent="1" vertex="1">
                    <mxGeometry x="440" y="600" width="70" height="30" as="geometry"/>
                </mxCell>
                <mxCell id="256" style="edgeStyle=none;html=1;exitX=0;exitY=1;exitDx=0;exitDy=0;endArrow=none;endFill=0;entryX=0.5;entryY=0;entryDx=0;entryDy=0;" edge="1" parent="1" source="66" target="254">
                    <mxGeometry relative="1" as="geometry">
                        <mxPoint x="20" y="620" as="targetPoint"/>
                    </mxGeometry>
                </mxCell>
                <mxCell id="282" style="edgeStyle=none;html=1;exitX=1;exitY=0;exitDx=0;exitDy=0;endArrow=none;endFill=0;entryX=0;entryY=0.5;entryDx=0;entryDy=0;" edge="1" parent="1" source="66" target="284">
                    <mxGeometry relative="1" as="geometry">
                        <mxPoint x="-70" y="377.5" as="targetPoint"/>
                    </mxGeometry>
                </mxCell>
                <mxCell id="66" value="CD" style="rounded=0;whiteSpace=wrap;html=1;" parent="1" vertex="1">
                    <mxGeometry x="-152.5" y="385" width="70" height="30" as="geometry"/>
                </mxCell>
                <mxCell id="216" style="edgeStyle=none;html=1;exitX=0.5;exitY=1;exitDx=0;exitDy=0;entryX=0.5;entryY=0;entryDx=0;entryDy=0;endArrow=none;endFill=0;" parent="1" source="67" target="231" edge="1">
                    <mxGeometry relative="1" as="geometry"/>
                </mxCell>
                <mxCell id="286" style="edgeStyle=none;html=1;exitX=1;exitY=0;exitDx=0;exitDy=0;entryX=0;entryY=1;entryDx=0;entryDy=0;endArrow=none;endFill=0;" edge="1" parent="1" source="67" target="285">
                    <mxGeometry relative="1" as="geometry"/>
                </mxCell>
                <mxCell id="67" value="Map" style="rounded=0;whiteSpace=wrap;html=1;" parent="1" vertex="1">
                    <mxGeometry x="737.5" y="525" width="70" height="30" as="geometry"/>
                </mxCell>
                <mxCell id="68" value="Laptop" style="rounded=0;whiteSpace=wrap;html=1;" parent="1" vertex="1">
                    <mxGeometry x="160" y="540" width="70" height="30" as="geometry"/>
                </mxCell>
                <mxCell id="96" style="edgeStyle=none;html=1;exitX=1;exitY=0.5;exitDx=0;exitDy=0;entryX=0;entryY=1;entryDx=0;entryDy=0;endArrow=none;endFill=0;" parent="1" source="71" target="63" edge="1">
                    <mxGeometry relative="1" as="geometry"/>
                </mxCell>
                <mxCell id="71" value="Title" style="ellipse;whiteSpace=wrap;html=1;" parent="1" vertex="1">
                    <mxGeometry x="290" y="640" width="60" height="30" as="geometry"/>
                </mxCell>
                <mxCell id="78" style="edgeStyle=none;html=1;entryX=1;entryY=0;entryDx=0;entryDy=0;endArrow=none;endFill=0;" parent="1" target="63" edge="1">
                    <mxGeometry relative="1" as="geometry">
                        <mxPoint x="540" y="590" as="sourcePoint"/>
                    </mxGeometry>
                </mxCell>
                <mxCell id="72" value="PublishDate" style="ellipse;whiteSpace=wrap;html=1;" parent="1" vertex="1">
                    <mxGeometry x="530" y="565" width="80" height="30" as="geometry"/>
                </mxCell>
                <mxCell id="154" style="edgeStyle=none;html=1;exitX=1;exitY=0.5;exitDx=0;exitDy=0;entryX=0;entryY=0.5;entryDx=0;entryDy=0;endArrow=none;endFill=0;" parent="1" source="74" target="66" edge="1">
                    <mxGeometry relative="1" as="geometry"/>
                </mxCell>
                <mxCell id="74" value="Title" style="ellipse;whiteSpace=wrap;html=1;" parent="1" vertex="1">
                    <mxGeometry x="-252.5" y="410" width="60" height="30" as="geometry"/>
                </mxCell>
                <mxCell id="81" style="edgeStyle=none;html=1;exitX=0.5;exitY=0;exitDx=0;exitDy=0;endArrow=none;endFill=0;entryX=0.75;entryY=1;entryDx=0;entryDy=0;" parent="1" source="77" target="66" edge="1">
                    <mxGeometry relative="1" as="geometry">
                        <mxPoint x="-112.5" y="425" as="targetPoint"/>
                    </mxGeometry>
                </mxCell>
                <mxCell id="77" value="Publish Date" style="ellipse;whiteSpace=wrap;html=1;" parent="1" vertex="1">
                    <mxGeometry x="-130" y="450" width="70" height="30" as="geometry"/>
                </mxCell>
                <mxCell id="82" style="edgeStyle=none;html=1;exitX=0.5;exitY=1;exitDx=0;exitDy=0;entryX=0.5;entryY=0;entryDx=0;entryDy=0;endArrow=none;endFill=0;" parent="1" source="80" target="66" edge="1">
                    <mxGeometry relative="1" as="geometry"/>
                </mxCell>
                <mxCell id="80" value="Producer" style="ellipse;whiteSpace=wrap;html=1;" parent="1" vertex="1">
                    <mxGeometry x="-220" y="320" width="60" height="30" as="geometry"/>
                </mxCell>
                <mxCell id="94" style="edgeStyle=none;html=1;exitX=0;exitY=0;exitDx=0;exitDy=0;entryX=1;entryY=1;entryDx=0;entryDy=0;endArrow=none;endFill=0;" parent="1" source="83" target="63" edge="1">
                    <mxGeometry relative="1" as="geometry"/>
                </mxCell>
                <mxCell id="83" value="Synopsis" style="ellipse;whiteSpace=wrap;html=1;" parent="1" vertex="1">
                    <mxGeometry x="515" y="640" width="60" height="30" as="geometry"/>
                </mxCell>
                <mxCell id="85" style="edgeStyle=none;html=1;entryX=0;entryY=0;entryDx=0;entryDy=0;endArrow=none;endFill=0;exitX=1;exitY=0.5;exitDx=0;exitDy=0;" parent="1" source="252" target="66" edge="1">
                    <mxGeometry relative="1" as="geometry">
                        <mxPoint x="-190" y="390" as="sourcePoint"/>
                    </mxGeometry>
                </mxCell>
                <mxCell id="84" value="Genre" style="ellipse;whiteSpace=wrap;html=1;" parent="1" vertex="1">
                    <mxGeometry x="-260" y="360" width="60" height="30" as="geometry"/>
                </mxCell>
                <mxCell id="87" value="Publisher" style="ellipse;whiteSpace=wrap;html=1;" parent="1" vertex="1">
                    <mxGeometry x="480" y="535" width="60" height="30" as="geometry"/>
                </mxCell>
                <mxCell id="101" style="edgeStyle=none;html=1;entryX=0.5;entryY=1;entryDx=0;entryDy=0;endArrow=none;endFill=0;" parent="1" source="92" target="68" edge="1">
                    <mxGeometry relative="1" as="geometry"/>
                </mxCell>
                <mxCell id="92" value="Model" style="ellipse;whiteSpace=wrap;html=1;" parent="1" vertex="1">
                    <mxGeometry x="165" y="595" width="55" height="30" as="geometry"/>
                </mxCell>
                <mxCell id="109" value="" style="ellipse;whiteSpace=wrap;html=1;" parent="1" vertex="1">
                    <mxGeometry x="430" y="360" width="90" height="60" as="geometry"/>
                </mxCell>
                <mxCell id="110" value="Closed Dates" style="ellipse;whiteSpace=wrap;html=1;" parent="1" vertex="1">
                    <mxGeometry x="440" y="370" width="70" height="40" as="geometry"/>
                </mxCell>
                <mxCell id="111" value="" style="endArrow=none;html=1;entryX=0.5;entryY=0;entryDx=0;entryDy=0;exitX=0.25;exitY=1;exitDx=0;exitDy=0;" parent="1" source="2" target="109" edge="1">
                    <mxGeometry width="50" height="50" relative="1" as="geometry">
                        <mxPoint x="430" y="430" as="sourcePoint"/>
                        <mxPoint x="350" y="470" as="targetPoint"/>
                    </mxGeometry>
                </mxCell>
                <mxCell id="120" style="edgeStyle=none;html=1;exitX=0;exitY=0;exitDx=0;exitDy=0;entryX=1;entryY=0.5;entryDx=0;entryDy=0;endArrow=none;endFill=0;" parent="1" source="119" target="67" edge="1">
                    <mxGeometry relative="1" as="geometry"/>
                </mxCell>
                <mxCell id="119" value="Location" style="ellipse;whiteSpace=wrap;html=1;" parent="1" vertex="1">
                    <mxGeometry x="860" y="550" width="60" height="30" as="geometry"/>
                </mxCell>
                <mxCell id="124" style="edgeStyle=none;html=1;exitX=0.5;exitY=1;exitDx=0;exitDy=0;entryX=0;entryY=0;entryDx=0;entryDy=0;endArrow=none;endFill=0;" parent="1" source="121" target="63" edge="1">
                    <mxGeometry relative="1" as="geometry"/>
                </mxCell>
                <mxCell id="121" value="is" style="rhombus;whiteSpace=wrap;html=1;" parent="1" vertex="1">
                    <mxGeometry x="280" y="490" width="80" height="80" as="geometry"/>
                </mxCell>
                <mxCell id="125" value="(1,1)" style="text;html=1;strokeColor=none;fillColor=none;align=center;verticalAlign=middle;whiteSpace=wrap;rounded=0;" parent="1" vertex="1">
                    <mxGeometry x="310" y="290" width="60" height="30" as="geometry"/>
                </mxCell>
                <mxCell id="127" value="(1,1)" style="text;html=1;strokeColor=none;fillColor=none;align=center;verticalAlign=middle;whiteSpace=wrap;rounded=0;" parent="1" vertex="1">
                    <mxGeometry x="430" y="290" width="60" height="30" as="geometry"/>
                </mxCell>
                <mxCell id="128" value="(1,1)" style="text;html=1;strokeColor=none;fillColor=none;align=center;verticalAlign=middle;whiteSpace=wrap;rounded=0;" parent="1" vertex="1">
                    <mxGeometry x="590" y="290" width="60" height="30" as="geometry"/>
                </mxCell>
                <mxCell id="130" value="(0,N)" style="text;html=1;strokeColor=none;fillColor=none;align=center;verticalAlign=middle;whiteSpace=wrap;rounded=0;" parent="1" vertex="1">
                    <mxGeometry x="720" y="290" width="60" height="30" as="geometry"/>
                </mxCell>
                <mxCell id="132" value="" style="endArrow=none;html=1;entryX=0;entryY=0.75;entryDx=0;entryDy=0;exitX=1;exitY=0;exitDx=0;exitDy=0;" parent="1" source="133" target="67" edge="1">
                    <mxGeometry width="50" height="50" relative="1" as="geometry">
                        <mxPoint x="704.4308053547265" y="565.6784934127459" as="sourcePoint"/>
                        <mxPoint x="737.5" y="557.5" as="targetPoint"/>
                    </mxGeometry>
                </mxCell>
                <mxCell id="133" value="Publisher" style="ellipse;whiteSpace=wrap;html=1;" parent="1" vertex="1">
                    <mxGeometry x="650" y="565" width="60" height="30" as="geometry"/>
                </mxCell>
                <mxCell id="136" value="(0,N)" style="text;html=1;strokeColor=none;fillColor=none;align=center;verticalAlign=middle;whiteSpace=wrap;rounded=0;" parent="1" vertex="1">
                    <mxGeometry x="365" y="555" width="60" height="30" as="geometry"/>
                </mxCell>
                <mxCell id="142" style="edgeStyle=none;html=1;exitX=0.5;exitY=1;exitDx=0;exitDy=0;entryX=0.25;entryY=0;entryDx=0;entryDy=0;endArrow=none;endFill=0;" parent="1" source="140" target="45" edge="1">
                    <mxGeometry relative="1" as="geometry"/>
                </mxCell>
                <mxCell id="143" value="(0,10)" style="text;html=1;align=center;verticalAlign=middle;resizable=0;points=[];autosize=1;strokeColor=none;fillColor=none;" parent="1" vertex="1">
                    <mxGeometry x="87.5" y="10" width="50" height="30" as="geometry"/>
                </mxCell>
                <mxCell id="140" value="rent" style="rhombus;whiteSpace=wrap;html=1;" parent="1" vertex="1">
                    <mxGeometry x="30" y="80" width="80" height="80" as="geometry"/>
                </mxCell>
                <mxCell id="146" style="edgeStyle=none;html=1;exitX=1;exitY=0.5;exitDx=0;exitDy=0;endArrow=none;endFill=0;entryX=0;entryY=0.5;entryDx=0;entryDy=0;" parent="1" source="144" target="140" edge="1">
                    <mxGeometry relative="1" as="geometry">
                        <mxPoint x="100" y="45" as="targetPoint"/>
                    </mxGeometry>
                </mxCell>
                <mxCell id="147" value="" style="endArrow=none;html=1;entryX=0;entryY=0.5;entryDx=0;entryDy=0;exitX=1;exitY=0.5;exitDx=0;exitDy=0;" parent="1" source="148" target="67" edge="1">
                    <mxGeometry width="50" height="50" relative="1" as="geometry">
                        <mxPoint x="630" y="575" as="sourcePoint"/>
                        <mxPoint x="667.5" y="555" as="targetPoint"/>
                    </mxGeometry>
                </mxCell>
                <mxCell id="144" value="DueDate" style="ellipse;whiteSpace=wrap;html=1;" parent="1" vertex="1">
                    <mxGeometry x="-45" y="105" width="60" height="30" as="geometry"/>
                </mxCell>
                <mxCell id="148" value="PublishDate" style="ellipse;whiteSpace=wrap;html=1;" parent="1" vertex="1">
                    <mxGeometry x="610" y="525" width="80" height="30" as="geometry"/>
                </mxCell>
                <mxCell id="149" value="(0,N)" style="text;html=1;align=center;verticalAlign=middle;resizable=0;points=[];autosize=1;strokeColor=none;fillColor=none;" parent="1" vertex="1">
                    <mxGeometry x="120" y="232.5" width="50" height="30" as="geometry"/>
                </mxCell>
                <mxCell id="155" value="" style="ellipse;whiteSpace=wrap;html=1;" parent="1" vertex="1">
                    <mxGeometry x="280" y="580" width="80" height="50" as="geometry"/>
                </mxCell>
                <mxCell id="156" value="Genre" style="ellipse;whiteSpace=wrap;html=1;" parent="1" vertex="1">
                    <mxGeometry x="290" y="590" width="60" height="30" as="geometry"/>
                </mxCell>
                <mxCell id="158" style="edgeStyle=none;html=1;exitX=0;exitY=0.5;exitDx=0;exitDy=0;entryX=0.614;entryY=0.012;entryDx=0;entryDy=0;endArrow=none;endFill=0;entryPerimeter=0;" parent="1" source="157" target="68" edge="1">
                    <mxGeometry relative="1" as="geometry"/>
                </mxCell>
                <mxCell id="159" style="edgeStyle=none;html=1;exitX=0.5;exitY=0;exitDx=0;exitDy=0;entryX=0.5;entryY=1;entryDx=0;entryDy=0;endArrow=none;endFill=0;" parent="1" source="157" target="45" edge="1">
                    <mxGeometry relative="1" as="geometry"/>
                </mxCell>
                <mxCell id="157" value="is" style="rhombus;whiteSpace=wrap;html=1;" parent="1" vertex="1">
                    <mxGeometry x="220" y="430" width="80" height="80" as="geometry"/>
                </mxCell>
                <mxCell id="163" style="edgeStyle=none;html=1;exitX=1;exitY=0.5;exitDx=0;exitDy=0;endArrow=none;endFill=0;entryX=0.5;entryY=0;entryDx=0;entryDy=0;" parent="1" source="162" target="67" edge="1">
                    <mxGeometry relative="1" as="geometry">
                        <mxPoint x="770" y="510" as="targetPoint"/>
                    </mxGeometry>
                </mxCell>
                <mxCell id="166" style="edgeStyle=none;html=1;exitX=0;exitY=0.5;exitDx=0;exitDy=0;entryX=1;entryY=1;entryDx=0;entryDy=0;endArrow=none;endFill=0;" parent="1" source="162" target="45" edge="1">
                    <mxGeometry relative="1" as="geometry"/>
                </mxCell>
                <mxCell id="162" value="is" style="rhombus;whiteSpace=wrap;html=1;" parent="1" vertex="1">
                    <mxGeometry x="530" y="440" width="80" height="80" as="geometry"/>
                </mxCell>
                <mxCell id="173" value="(1,1)" style="text;html=1;strokeColor=none;fillColor=none;align=center;verticalAlign=middle;whiteSpace=wrap;rounded=0;" parent="1" vertex="1">
                    <mxGeometry x="250" y="370" width="60" height="30" as="geometry"/>
                </mxCell>
                <mxCell id="167" value="&lt;span&gt;ISBN&lt;/span&gt;" style="ellipse;whiteSpace=wrap;html=1;fontStyle=0" parent="1" vertex="1">
                    <mxGeometry x="395" y="650" width="60" height="30" as="geometry"/>
                </mxCell>
                <mxCell id="175" value="(1,1)" style="text;html=1;strokeColor=none;fillColor=none;align=center;verticalAlign=middle;whiteSpace=wrap;rounded=0;" parent="1" vertex="1">
                    <mxGeometry x="147.5" y="340" width="60" height="30" as="geometry"/>
                </mxCell>
                <mxCell id="178" value="(1,1)" style="text;html=1;strokeColor=none;fillColor=none;align=center;verticalAlign=middle;whiteSpace=wrap;rounded=0;" parent="1" vertex="1">
                    <mxGeometry x="390" y="420" width="60" height="30" as="geometry"/>
                </mxCell>
                <mxCell id="181" value="(0,N)" style="text;html=1;strokeColor=none;fillColor=none;align=center;verticalAlign=middle;whiteSpace=wrap;rounded=0;" parent="1" vertex="1">
                    <mxGeometry x="147.5" y="500" width="60" height="30" as="geometry"/>
                </mxCell>
                <mxCell id="182" value="(0,N)" style="text;html=1;strokeColor=none;fillColor=none;align=center;verticalAlign=middle;whiteSpace=wrap;rounded=0;" parent="1" vertex="1">
                    <mxGeometry x="95" y="412.5" width="60" height="30" as="geometry"/>
                </mxCell>
                <mxCell id="183" value="(0,N)" style="text;html=1;strokeColor=none;fillColor=none;align=center;verticalAlign=middle;whiteSpace=wrap;rounded=0;" parent="1" vertex="1">
                    <mxGeometry x="660" y="470" width="60" height="30" as="geometry"/>
                </mxCell>
                <mxCell id="189" style="edgeStyle=none;html=1;endArrow=none;endFill=0;" parent="1" source="187" target="2" edge="1">
                    <mxGeometry relative="1" as="geometry"/>
                </mxCell>
                <mxCell id="198" style="edgeStyle=none;html=1;exitX=0.5;exitY=1;exitDx=0;exitDy=0;entryX=0.75;entryY=0;entryDx=0;entryDy=0;endArrow=none;endFill=0;" parent="1" source="190" target="66" edge="1">
                    <mxGeometry relative="1" as="geometry"/>
                </mxCell>
                <mxCell id="187" value="&lt;u&gt;LibraryName&lt;/u&gt;" style="ellipse;whiteSpace=wrap;html=1;" parent="1" vertex="1">
                    <mxGeometry x="540" y="240" width="90" height="30" as="geometry"/>
                </mxCell>
                <mxCell id="196" style="edgeStyle=none;html=1;exitX=0.5;exitY=0;exitDx=0;exitDy=0;endArrow=none;endFill=0;entryX=0.912;entryY=0.967;entryDx=0;entryDy=0;entryPerimeter=0;" parent="1" source="192" target="67" edge="1">
                    <mxGeometry relative="1" as="geometry">
                        <mxPoint x="773" y="560" as="targetPoint"/>
                    </mxGeometry>
                </mxCell>
                <mxCell id="202" style="edgeStyle=none;html=1;exitX=0.5;exitY=1;exitDx=0;exitDy=0;entryX=0.5;entryY=0;entryDx=0;entryDy=0;endArrow=none;endFill=0;" parent="1" source="200" target="50" edge="1">
                    <mxGeometry relative="1" as="geometry"/>
                </mxCell>
                <mxCell id="192" value="&lt;span&gt;ISBN&lt;/span&gt;" style="ellipse;whiteSpace=wrap;html=1;fontStyle=0" parent="1" vertex="1">
                    <mxGeometry x="822.5" y="585" width="60" height="30" as="geometry"/>
                </mxCell>
                <mxCell id="139" value="(1,1)" style="text;html=1;strokeColor=none;fillColor=none;align=center;verticalAlign=middle;whiteSpace=wrap;rounded=0;" parent="1" vertex="1">
                    <mxGeometry x="310" y="420" width="60" height="30" as="geometry"/>
                </mxCell>
                <mxCell id="190" value="CDID (Barcode)" style="ellipse;whiteSpace=wrap;html=1;" parent="1" vertex="1">
                    <mxGeometry x="-145" y="320" width="60" height="30" as="geometry"/>
                </mxCell>
                <mxCell id="207" style="edgeStyle=none;html=1;exitX=1;exitY=1;exitDx=0;exitDy=0;entryX=0.5;entryY=0;entryDx=0;entryDy=0;endArrow=none;endFill=0;" parent="1" source="204" target="53" edge="1">
                    <mxGeometry relative="1" as="geometry"/>
                </mxCell>
                <mxCell id="200" value="&lt;span&gt;&lt;u&gt;EventName&lt;/u&gt;&lt;/span&gt;" style="ellipse;whiteSpace=wrap;html=1;fontStyle=0" parent="1" vertex="1">
                    <mxGeometry x="790" y="240" width="90" height="30" as="geometry"/>
                </mxCell>
                <mxCell id="220" style="edgeStyle=none;html=1;entryX=0.747;entryY=0.082;entryDx=0;entryDy=0;entryPerimeter=0;endArrow=none;endFill=0;exitX=0.25;exitY=1;exitDx=0;exitDy=0;" parent="1" source="230" target="219" edge="1">
                    <mxGeometry relative="1" as="geometry">
                        <mxPoint x="610" y="860" as="sourcePoint"/>
                    </mxGeometry>
                </mxCell>
                <mxCell id="209" style="edgeStyle=none;html=1;exitX=0;exitY=1;exitDx=0;exitDy=0;entryX=0.5;entryY=0;entryDx=0;entryDy=0;endArrow=none;endFill=0;" parent="1" source="204" target="51" edge="1">
                    <mxGeometry relative="1" as="geometry"/>
                </mxCell>
                <mxCell id="204" value="RoomRes" style="ellipse;whiteSpace=wrap;html=1;fontStyle=4" parent="1" vertex="1">
                    <mxGeometry x="807.5" y="380" width="60" height="30" as="geometry"/>
                </mxCell>
                <mxCell id="215" style="edgeStyle=none;html=1;exitX=1;exitY=0.5;exitDx=0;exitDy=0;endArrow=none;endFill=0;entryX=0;entryY=0.25;entryDx=0;entryDy=0;" parent="1" source="229" target="230" edge="1">
                    <mxGeometry relative="1" as="geometry">
                        <mxPoint x="580" y="830" as="targetPoint"/>
                    </mxGeometry>
                </mxCell>
                <mxCell id="217" style="edgeStyle=none;html=1;exitX=0.5;exitY=1;exitDx=0;exitDy=0;endArrow=none;endFill=0;" parent="1" source="231" edge="1">
                    <mxGeometry relative="1" as="geometry">
                        <mxPoint x="670" y="830" as="targetPoint"/>
                    </mxGeometry>
                </mxCell>
                <mxCell id="219" value="FName" style="ellipse;whiteSpace=wrap;html=1;" parent="1" vertex="1">
                    <mxGeometry x="540" y="890" width="90" height="40" as="geometry"/>
                </mxCell>
                <mxCell id="222" value="(1,N)" style="text;html=1;strokeColor=none;fillColor=none;align=center;verticalAlign=middle;whiteSpace=wrap;rounded=0;" parent="1" vertex="1">
                    <mxGeometry x="720" y="640" width="60" height="30" as="geometry"/>
                </mxCell>
                <mxCell id="225" value="(1,N)" style="text;html=1;strokeColor=none;fillColor=none;align=center;verticalAlign=middle;whiteSpace=wrap;rounded=0;" parent="1" vertex="1">
                    <mxGeometry x="468" y="680" width="60" height="30" as="geometry"/>
                </mxCell>
                <mxCell id="227" value="(0,N)" style="text;html=1;strokeColor=none;fillColor=none;align=center;verticalAlign=middle;whiteSpace=wrap;rounded=0;" parent="1" vertex="1">
                    <mxGeometry x="515" y="810" width="60" height="30" as="geometry"/>
                </mxCell>
                <mxCell id="228" value="(0,N)" style="text;html=1;strokeColor=none;fillColor=none;align=center;verticalAlign=middle;whiteSpace=wrap;rounded=0;" parent="1" vertex="1">
                    <mxGeometry x="672.5" y="790" width="60" height="30" as="geometry"/>
                </mxCell>
                <mxCell id="233" style="edgeStyle=none;html=1;exitX=0.5;exitY=1;exitDx=0;exitDy=0;entryX=0.25;entryY=0;entryDx=0;entryDy=0;endArrow=none;endFill=0;" parent="1" source="232" target="29" edge="1">
                    <mxGeometry relative="1" as="geometry"/>
                </mxCell>
                <mxCell id="237" style="edgeStyle=none;html=1;exitX=1;exitY=0.5;exitDx=0;exitDy=0;entryX=0;entryY=0.25;entryDx=0;entryDy=0;endArrow=none;endFill=0;" parent="1" source="236" target="45" edge="1">
                    <mxGeometry relative="1" as="geometry"/>
                </mxCell>
                <mxCell id="232" value="Balance" style="ellipse;whiteSpace=wrap;html=1;" parent="1" vertex="1">
                    <mxGeometry x="195" y="-190" width="70" height="40" as="geometry"/>
                </mxCell>
                <mxCell id="236" value="ItemID" style="ellipse;whiteSpace=wrap;html=1;fontStyle=4" parent="1" vertex="1">
                    <mxGeometry x="40" y="280" width="80" height="30" as="geometry"/>
                </mxCell>
                <mxCell id="239" value="Employee" style="rounded=0;whiteSpace=wrap;html=1;" parent="1" vertex="1">
                    <mxGeometry x="-60" y="-75" width="100" height="40" as="geometry"/>
                </mxCell>
                <mxCell id="240" value="Available" style="ellipse;whiteSpace=wrap;html=1;fontStyle=0" parent="1" vertex="1">
                    <mxGeometry x="47.5" y="320" width="80" height="30" as="geometry"/>
                </mxCell>
                <mxCell id="241" style="edgeStyle=none;html=1;endArrow=none;endFill=0;exitX=1;exitY=0.5;exitDx=0;exitDy=0;entryX=0;entryY=0.5;entryDx=0;entryDy=0;" parent="1" source="240" target="45" edge="1">
                    <mxGeometry relative="1" as="geometry">
                        <mxPoint x="160" y="280" as="sourcePoint"/>
                        <mxPoint x="200" y="290" as="targetPoint"/>
                        <Array as="points"/>
                    </mxGeometry>
                </mxCell>
                <mxCell id="249" style="edgeStyle=none;html=1;exitX=1;exitY=0;exitDx=0;exitDy=0;entryX=0;entryY=1;entryDx=0;entryDy=0;endArrow=none;endFill=0;" parent="1" source="246" target="230" edge="1">
                    <mxGeometry relative="1" as="geometry"/>
                </mxCell>
                <mxCell id="246" value="D.O.B" style="ellipse;whiteSpace=wrap;html=1;" parent="1" vertex="1">
                    <mxGeometry x="435" y="870" width="90" height="40" as="geometry"/>
                </mxCell>
                <mxCell id="247" value="LName" style="ellipse;whiteSpace=wrap;html=1;" parent="1" vertex="1">
                    <mxGeometry x="640" y="890" width="90" height="40" as="geometry"/>
                </mxCell>
                <mxCell id="250" value="&lt;u&gt;AuthorID&lt;/u&gt;" style="ellipse;whiteSpace=wrap;html=1;" parent="1" vertex="1">
                    <mxGeometry x="735" y="860" width="90" height="40" as="geometry"/>
                </mxCell>
                <mxCell id="254" value="Has" style="rhombus;whiteSpace=wrap;html=1;" vertex="1" parent="1">
                    <mxGeometry x="-200" y="810" width="100" height="100" as="geometry"/>
                </mxCell>
                <mxCell id="260" value="(1,N)" style="text;html=1;strokeColor=none;fillColor=none;align=center;verticalAlign=middle;whiteSpace=wrap;rounded=0;" vertex="1" parent="1">
                    <mxGeometry x="-142.5" y="640" width="60" height="30" as="geometry"/>
                </mxCell>
                <mxCell id="261" value="(0,N)" style="text;html=1;strokeColor=none;fillColor=none;align=center;verticalAlign=middle;whiteSpace=wrap;rounded=0;" vertex="1" parent="1">
                    <mxGeometry x="127.5" y="855" width="60" height="30" as="geometry"/>
                </mxCell>
                <mxCell id="267" style="edgeStyle=none;html=1;exitX=0.5;exitY=1;exitDx=0;exitDy=0;entryX=0.5;entryY=0;entryDx=0;entryDy=0;endArrow=none;endFill=0;" edge="1" parent="1" source="265" target="45">
                    <mxGeometry relative="1" as="geometry"/>
                </mxCell>
                <mxCell id="265" value="waitlist" style="rhombus;whiteSpace=wrap;html=1;" vertex="1" parent="1">
                    <mxGeometry x="230" y="80" width="80" height="80" as="geometry"/>
                </mxCell>
                <mxCell id="269" value="(0,10)" style="text;html=1;align=center;verticalAlign=middle;resizable=0;points=[];autosize=1;strokeColor=none;fillColor=none;" vertex="1" parent="1">
                    <mxGeometry x="390" width="50" height="30" as="geometry"/>
                </mxCell>
                <mxCell id="270" value="(0,N)" style="text;html=1;align=center;verticalAlign=middle;resizable=0;points=[];autosize=1;strokeColor=none;fillColor=none;" vertex="1" parent="1">
                    <mxGeometry x="265" y="220" width="50" height="30" as="geometry"/>
                </mxCell>
                <mxCell id="274" style="edgeStyle=none;html=1;exitX=0.5;exitY=1;exitDx=0;exitDy=0;endArrow=none;endFill=0;entryX=0.75;entryY=0;entryDx=0;entryDy=0;" edge="1" parent="1" source="273" target="45">
                    <mxGeometry relative="1" as="geometry">
                        <mxPoint x="360" y="260" as="targetPoint"/>
                    </mxGeometry>
                </mxCell>
                <mxCell id="275" style="edgeStyle=none;html=1;exitX=0.5;exitY=0;exitDx=0;exitDy=0;entryX=1;entryY=1;entryDx=0;entryDy=0;endArrow=none;endFill=0;" edge="1" parent="1" source="273" target="29">
                    <mxGeometry relative="1" as="geometry">
                        <mxPoint x="566.8800000000001" y="140" as="targetPoint"/>
                    </mxGeometry>
                </mxCell>
                <mxCell id="281" style="edgeStyle=none;html=1;exitX=1;exitY=0.5;exitDx=0;exitDy=0;entryX=0;entryY=0.5;entryDx=0;entryDy=0;endArrow=none;endFill=0;" edge="1" parent="1" source="273" target="278">
                    <mxGeometry relative="1" as="geometry"/>
                </mxCell>
                <mxCell id="273" value="reserve" style="rhombus;whiteSpace=wrap;html=1;" vertex="1" parent="1">
                    <mxGeometry x="420" y="80" width="80" height="80" as="geometry"/>
                </mxCell>
                <mxCell id="276" value="(0,10)" style="text;html=1;align=center;verticalAlign=middle;resizable=0;points=[];autosize=1;strokeColor=none;fillColor=none;" vertex="1" parent="1">
                    <mxGeometry x="265" y="10" width="50" height="30" as="geometry"/>
                </mxCell>
                <mxCell id="277" value="(0,N)" style="text;html=1;align=center;verticalAlign=middle;resizable=0;points=[];autosize=1;strokeColor=none;fillColor=none;" vertex="1" parent="1">
                    <mxGeometry x="360" y="220" width="50" height="30" as="geometry"/>
                </mxCell>
                <mxCell id="278" value="ResDate" style="ellipse;whiteSpace=wrap;html=1;" vertex="1" parent="1">
                    <mxGeometry x="520" y="105" width="60" height="30" as="geometry"/>
                </mxCell>
                <mxCell id="280" style="edgeStyle=none;html=1;exitX=1;exitY=0;exitDx=0;exitDy=0;entryX=0;entryY=1;entryDx=0;entryDy=0;endArrow=none;endFill=0;" edge="1" parent="1" source="279" target="265">
                    <mxGeometry relative="1" as="geometry"/>
                </mxCell>
                <mxCell id="279" value="joinDate" style="ellipse;whiteSpace=wrap;html=1;" vertex="1" parent="1">
                    <mxGeometry x="170" y="150" width="60" height="30" as="geometry"/>
                </mxCell>
                <mxCell id="284" value="ItemID" style="ellipse;whiteSpace=wrap;html=1;fontStyle=4" vertex="1" parent="1">
                    <mxGeometry x="-72.5" y="350" width="80" height="30" as="geometry"/>
                </mxCell>
                <mxCell id="285" value="ItemID" style="ellipse;whiteSpace=wrap;html=1;fontStyle=4" vertex="1" parent="1">
                    <mxGeometry x="825" y="490" width="60" height="30" as="geometry"/>
                </mxCell>
                <mxCell id="288" style="edgeStyle=none;html=1;exitX=0.5;exitY=1;exitDx=0;exitDy=0;entryX=0.25;entryY=0;entryDx=0;entryDy=0;endArrow=none;endFill=0;" edge="1" parent="1" source="287" target="63">
                    <mxGeometry relative="1" as="geometry"/>
                </mxCell>
                <mxCell id="287" value="ItemID" style="ellipse;whiteSpace=wrap;html=1;fontStyle=4" vertex="1" parent="1">
                    <mxGeometry x="408" y="535" width="60" height="30" as="geometry"/>
                </mxCell>
                <mxCell id="292" style="edgeStyle=none;html=1;exitX=1;exitY=0.5;exitDx=0;exitDy=0;entryX=0;entryY=0.5;entryDx=0;entryDy=0;endArrow=none;endFill=0;" edge="1" parent="1" source="291" target="68">
                    <mxGeometry relative="1" as="geometry"/>
                </mxCell>
                <mxCell id="291" value="ItemID" style="ellipse;whiteSpace=wrap;html=1;fontStyle=4" vertex="1" parent="1">
                    <mxGeometry x="62.5" y="555" width="65" height="30" as="geometry"/>
                </mxCell>
            </root>
        </mxGraphModel>
    </diagram>
</mxfile>